# xmcd
#
# Track frame offsets: 
#        150
#        27762
#        50670
#        72336
#        98005
#        115667
#        133428
#        148817
#        170583
#        197118
#        234661
#
# Disc length: 3710 seconds
#
# Revision: 2
# Processed by: cddbd v1.5.2PL0 Copyright (c) Steve Scherf et al.
# Submitted via: ExactAudioCopy v0.95b4
#
DISCID=a40e7c0b
DTITLE=Edgar Winter - Jazzin' The Blues
DYEAR=2004
DGENRE=Fusion/Blues
TTITLE0=Jazzin' the Blues
TTITLE1=Free Ride (smooth)
TTITLE2=God Did It
TTITLE3=New Man
TTITLE4=More than Enough
TTITLE5=Brother Luke
TTITLE6=Hunk o'da Funk
TTITLE7=Big Bad Bottom
TTITLE8=Here's 2 Guitars
TTITLE9=Keys to the Kingdom
TTITLE10=Frankenstein (Frankie Swings)
EXTD=YEAR: 2004
EXTT0=
EXTT1=
EXTT2=
EXTT3=
EXTT4=
EXTT5=
EXTT6=
EXTT7=
EXTT8=
EXTT9=
EXTT10=
PLAYORDER=
